# File generated by ImageToStl.com - Free Image and 3D model conversion tools

o obj1
v -0.0091641 -0.00165 -0.0118136
v -0.0091641 -0.010159 -0.0118136
v -0.0091641 -0.00165 -0.0115215
v -0.0091641 -0.010159 -0.01173105
v -0.0091641 -0.00165 -0.0094006
v -0.0091641 -0.010159 -0.0094006
v 0.0263959 -0.00165 -0.0118136
v 0.0263959 -0.010159 -0.0118136
v 0.0238559 -0.00165 -0.0118136
v 0.0238559 -0.010159 -0.0118136
v 0.0213159 -0.00165 -0.0118136
v 0.0213159 -0.010159 -0.0118136
v 0.0187759 -0.00165 -0.0118136
v 0.0187759 -0.010159 -0.0118136
v 0.0162359 -0.00165 -0.0118136
v 0.0162359 -0.010159 -0.0118136
v 0.0136959 -0.00165 -0.0118136
v 0.0136959 -0.010159 -0.0118136
v 0.0111559 -0.00165 -0.0118136
v 0.0111559 -0.010159 -0.0118136
v 0.0086159 -0.00165 -0.0118136
v 0.0086159 -0.010159 -0.0118136
v 0.0035359 -0.00165 -0.0118136
v 0.0035359 -0.010159 -0.0118136
v 0.0009959 -0.00165 -0.0118136
v 0.0009959 -0.010159 -0.0118136
v -0.0015441 -0.00165 -0.0118136
v -0.0015441 -0.010159 -0.0118136
v -0.0040841 -0.00165 -0.0118136
v -0.0040841 -0.010159 -0.0118136
v -0.0066241 -0.00165 -0.0118136
v -0.0066241 -0.010159 -0.0118136
v -0.00881485 -0.00165 -0.0118136
v -0.0090244 -0.010159 -0.0118136
v 0.0245544 -0.009905 -0.0112294
v 0.0241353 -0.010159 -0.0116485
v 0.0256974 -0.009905 -0.0112294
v 0.0261165 -0.010159 -0.0116485
v 0.0241353 -0.010159 -0.0096673
v 0.0245544 -0.009905 -0.0100864
v 0.0261165 -0.010159 -0.0096673
v 0.0256974 -0.009905 -0.0100864
v 0.0256974 -0.00165 -0.0100864
v 0.0256974 -0.00165 -0.0112294
v 0.0245544 -0.00165 -0.0100864
v 0.0263959 -0.010159 -0.01173105
v 0.0238559 -0.010159 -0.01173105
v 0.0263959 -0.010159 -0.0094006
v 0.0238559 -0.010159 -0.0094006
v 0.0215953 -0.010159 -0.0116485
v 0.0213159 -0.010159 -0.01173105
v 0.0235765 -0.010159 -0.0116485
v 0.0235765 -0.010159 -0.0096673
v 0.0215953 -0.010159 -0.0096673
v 0.0213159 -0.010159 -0.0094006
v 0.0190553 -0.010159 -0.0116485
v 0.0187759 -0.010159 -0.01173105
v 0.0210365 -0.010159 -0.0116485
v 0.0210365 -0.010159 -0.0096673
v 0.0190553 -0.010159 -0.0096673
v 0.0187759 -0.010159 -0.0094006
v 0.0165153 -0.010159 -0.0116485
v 0.0162359 -0.010159 -0.01173105
v 0.0184965 -0.010159 -0.0116485
v 0.0184965 -0.010159 -0.0096673
v 0.0165153 -0.010159 -0.0096673
v 0.0162359 -0.010159 -0.0094006
v 0.0139753 -0.010159 -0.0116485
v 0.0136959 -0.010159 -0.01173105
v 0.0159565 -0.010159 -0.0116485
v 0.0159565 -0.010159 -0.0096673
v 0.0139753 -0.010159 -0.0096673
v 0.0136959 -0.010159 -0.0094006
v 0.0114353 -0.010159 -0.0116485
v 0.0111559 -0.010159 -0.01173105
v 0.0134165 -0.010159 -0.0116485
v 0.0134165 -0.010159 -0.0096673
v 0.0114353 -0.010159 -0.0096673
v 0.0111559 -0.010159 -0.0094006
v 0.0088953 -0.010159 -0.0116485
v 0.0086159 -0.010159 -0.01173105
v 0.0108765 -0.010159 -0.0116485
v 0.0108765 -0.010159 -0.0096673
v 0.0088953 -0.010159 -0.0096673
v 0.0086159 -0.010159 -0.0094006
v 0.0035359 -0.010159 -0.0094006
v 0.0057965 -0.010159 -0.0096673
v 0.0038153 -0.010159 -0.0096673
v 0.0038153 -0.010159 -0.0116485
v 0.0035359 -0.010159 -0.01173105
v 0.0057965 -0.010159 -0.0116485
v 0.0063553 -0.010159 -0.0116485
v 0.0063553 -0.010159 -0.0096673
v 0.0083365 -0.010159 -0.0096673
v 0.0083365 -0.010159 -0.0116485
v 0.0012753 -0.010159 -0.0116485
v 0.0009959 -0.010159 -0.01173105
v 0.0032565 -0.010159 -0.0116485
v 0.0032565 -0.010159 -0.0096673
v 0.0012753 -0.010159 -0.0096673
v 0.0009959 -0.010159 -0.0094006
v -0.0012647 -0.010159 -0.0116485
v -0.0015441 -0.010159 -0.01173105
v 0.0007165 -0.010159 -0.0116485
v 0.0007165 -0.010159 -0.0096673
v -0.0012647 -0.010159 -0.0096673
v -0.0015441 -0.010159 -0.0094006
v -0.0038047 -0.010159 -0.0116485
v -0.0040841 -0.010159 -0.01173105
v -0.0018235 -0.010159 -0.0116485
v -0.0018235 -0.010159 -0.0096673
v -0.0038047 -0.010159 -0.0096673
v -0.0040841 -0.010159 -0.0094006
v -0.0063447 -0.010159 -0.0116485
v -0.0066241 -0.010159 -0.01173105
v -0.0043635 -0.010159 -0.0116485
v -0.0043635 -0.010159 -0.0096673
v -0.0063447 -0.010159 -0.0096673
v -0.0066241 -0.010159 -0.0094006
v -0.0088847 -0.010159 -0.0116485
v -0.0090244 -0.010159 -0.01173105
v -0.0069035 -0.010159 -0.0116485
v -0.0069035 -0.010159 -0.0096673
v -0.0088847 -0.010159 -0.0096673
v -0.0090244 -0.010159 -0.0094006
v 0.0220144 -0.009905 -0.0112294
v 0.0231574 -0.009905 -0.0112294
v 0.0220144 -0.009905 -0.0100864
v 0.0231574 -0.009905 -0.0100864
v 0.0231574 -0.00165 -0.0100864
v 0.0231574 -0.00165 -0.0112294
v 0.0220144 -0.00165 -0.0100864
v 0.0194744 -0.009905 -0.0112294
v 0.0206174 -0.009905 -0.0112294
v 0.0194744 -0.009905 -0.0100864
v 0.0206174 -0.009905 -0.0100864
v 0.0206174 -0.00165 -0.0100864
v 0.0206174 -0.00165 -0.0112294
v 0.0194744 -0.00165 -0.0100864
v 0.0169344 -0.009905 -0.0112294
v 0.0180774 -0.009905 -0.0112294
v 0.0169344 -0.009905 -0.0100864
v 0.0180774 -0.009905 -0.0100864
v 0.0180774 -0.00165 -0.0100864
v 0.0180774 -0.00165 -0.0112294
v 0.0169344 -0.00165 -0.0100864
v 0.0143944 -0.009905 -0.0112294
v 0.0155374 -0.009905 -0.0112294
v 0.0143944 -0.009905 -0.0100864
v 0.0155374 -0.009905 -0.0100864
v 0.0155374 -0.00165 -0.0100864
v 0.0155374 -0.00165 -0.0112294
v 0.0143944 -0.00165 -0.0100864
v 0.0118544 -0.009905 -0.0112294
v 0.0129974 -0.009905 -0.0112294
v 0.0118544 -0.009905 -0.0100864
v 0.0129974 -0.009905 -0.0100864
v 0.0129974 -0.00165 -0.0100864
v 0.0129974 -0.00165 -0.0112294
v 0.0118544 -0.00165 -0.0100864
v 0.0093144 -0.009905 -0.0112294
v 0.0104574 -0.009905 -0.0112294
v -0.0073226 -0.00165 -0.0112294
v -0.0084656 -0.00165 -0.0112294
v -0.0073226 -0.009905 -0.0112294
v -0.0084656 -0.009905 -0.0112294
v -0.0084656 -0.009905 -0.0100864
v -0.0084656 -0.00165 -0.0100864
v -0.0073226 -0.009905 -0.0100864
v -0.0073226 -0.00165 -0.0100864
v 0.0263959 -0.00165 -0.0094006
v 0.0263959 -0.00165 -0.0115215
v 0.0194744 -0.00165 -0.0112294
v 0.0093144 -0.00165 -0.0112294
v 0.0093144 -0.00165 -0.0100864
v 0.0093144 -0.009905 -0.0100864
v 0.0104574 -0.00165 -0.0112294
v -0.0008456 -0.00165 -0.0112294
v -0.0008456 -0.00165 -0.0100864
v -0.0008456 -0.009905 -0.0112294
v -0.0008456 -0.009905 -0.0100864
v 0.0002974 -0.00165 -0.0112294
v 0.0002974 -0.009905 -0.0112294
v 0.0016944 -0.00165 -0.0112294
v 0.0016944 -0.00165 -0.0100864
v 0.0016944 -0.009905 -0.0112294
v 0.0016944 -0.009905 -0.0100864
v 0.0028374 -0.00165 -0.0112294
v 0.0028374 -0.009905 -0.0112294
v 0.0118544 -0.00165 -0.0112294
v 0.0220144 -0.00165 -0.0112294
v 0.0143944 -0.00165 -0.0112294
v 0.0245544 -0.00165 -0.0112294
v 0.0238559 -0.00165 -0.0115215
v 0.0213159 -0.00165 -0.0115215
v 0.0187759 -0.00165 -0.0115215
v 0.0162359 -0.00165 -0.0115215
v 0.0136959 -0.00165 -0.0115215
v 0.0111559 -0.00165 -0.0115215
v 0.0086159 -0.00165 -0.0115215
v -0.00881485 -0.00165 -0.0115215
v -0.0066241 -0.00165 -0.0115215
v -0.0040841 -0.00165 -0.0115215
v -0.0015441 -0.00165 -0.0115215
v 0.0009959 -0.00165 -0.0115215
v 0.0035359 -0.00165 -0.0115215
v 0.0238559 -0.00165 -0.0094006
v 0.0213159 -0.00165 -0.0094006
v 0.0187759 -0.00165 -0.0094006
v 0.0169344 -0.00165 -0.0112294
v 0.0162359 -0.00165 -0.0094006
v 0.0136959 -0.00165 -0.0094006
v 0.0111559 -0.00165 -0.0094006
v 0.0086159 -0.00165 -0.0094006
v 0.0104574 -0.00165 -0.0100864
v 0.0053774 -0.00165 -0.0100864
v 0.0042344 -0.00165 -0.0100864
v 0.0035359 -0.00165 -0.0094006
v 0.0067744 -0.00165 -0.0112294
v 0.0079174 -0.00165 -0.0112294
v 0.0042344 -0.00165 -0.0112294
v 0.0053774 -0.00165 -0.0112294
v 0.0079174 -0.00165 -0.0100864
v 0.0067744 -0.00165 -0.0100864
v 0.0009959 -0.00165 -0.0094006
v 0.0028374 -0.00165 -0.0100864
v -0.0015441 -0.00165 -0.0094006
v 0.0002974 -0.00165 -0.0100864
v -0.0022426 -0.00165 -0.0112294
v -0.0033856 -0.00165 -0.0112294
v -0.0033856 -0.00165 -0.0100864
v -0.0040841 -0.00165 -0.0094006
v -0.0022426 -0.00165 -0.0100864
v -0.0047826 -0.00165 -0.0112294
v -0.0059256 -0.00165 -0.0112294
v -0.0059256 -0.00165 -0.0100864
v -0.0066241 -0.00165 -0.0094006
v -0.0047826 -0.00165 -0.0100864
v -0.00881485 -0.00165 -0.0094006
v 0.0053774 -0.009905 -0.0112294
v 0.0042344 -0.009905 -0.0112294
v 0.0042344 -0.009905 -0.0100864
v -0.0047826 -0.009905 -0.0112294
v -0.0059256 -0.009905 -0.0112294
v -0.0059256 -0.009905 -0.0100864
v -0.0022426 -0.009905 -0.0112294
v -0.0033856 -0.009905 -0.0112294
v -0.0033856 -0.009905 -0.0100864
v 0.0079174 -0.009905 -0.0112294
v 0.0067744 -0.009905 -0.0112294
v 0.0067744 -0.009905 -0.0100864
v -0.0047826 -0.009905 -0.0100864
v -0.0022426 -0.009905 -0.0100864
v 0.0002974 -0.009905 -0.0100864
v 0.0028374 -0.009905 -0.0100864
v 0.0053774 -0.009905 -0.0100864
v 0.0079174 -0.009905 -0.0100864
v 0.0104574 -0.009905 -0.0100864
vn -1 0 0
vn -0 -0 -1
vn 0 -0.8552 0.5183
vn 0.5183 -0.8552 0
vn -0 -0.8552 -0.5183
vn -0.5183 -0.8552 0
vn 0 -1 0
vn 0.5183 -0.8552 0
vn -0.5183 -0.8552 0
vn 0.5183 -0.8552 0
vn -0.5183 -0.8552 0
vn 0 0 1
vn 1 0 -0
vn -0.5183 -0.8552 0
vn 0 1 0
vn 0.5183 -0.8552 0
vn -0.5183 -0.8552 0
vn 0.5183 -0.8552 0
vn -0.5183 -0.8552 0
vn 0.5183 -0.8552 0
vn 0.5183 -0.8552 0
f 1//1 2//1 3//1
f 2//1 4//1 3//1
f 3//1 4//1 5//1
f 4//1 6//1 5//1
f 7//2 8//2 9//2
f 8//2 10//2 9//2
f 9//2 10//2 11//2
f 10//2 12//2 11//2
f 11//2 12//2 13//2
f 12//2 14//2 13//2
f 13//2 14//2 15//2
f 14//2 16//2 15//2
f 15//2 16//2 17//2
f 16//2 18//2 17//2
f 17//2 18//2 19//2
f 18//2 20//2 19//2
f 19//2 20//2 21//2
f 20//2 22//2 21//2
f 21//2 22//2 23//2
f 22//2 24//2 23//2
f 23//2 24//2 25//2
f 24//2 26//2 25//2
f 25//2 26//2 27//2
f 26//2 28//2 27//2
f 27//2 28//2 29//2
f 28//2 30//2 29//2
f 29//2 30//2 31//2
f 30//2 32//2 31//2
f 31//2 32//2 33//2
f 32//2 34//2 33//2
f 33//2 34//2 1//2
f 34//2 2//2 1//2
f 35//3 36//3 37//3
f 36//3 38//3 37//3
f 39//4 36//4 40//4
f 36//4 35//4 40//4
f 41//5 39//5 42//5
f 39//5 40//5 42//5
f 38//6 41//6 37//6
f 41//6 42//6 37//6
f 43//1 44//1 42//1
f 44//1 37//1 42//1
f 45//2 43//2 40//2
f 43//2 42//2 40//2
f 8//7 46//7 47//7
f 41//7 48//7 39//7
f 48//7 49//7 39//7
f 39//7 49//7 36//7
f 49//7 47//7 36//7
f 36//7 47//7 38//7
f 47//7 46//7 38//7
f 38//7 46//7 41//7
f 46//7 48//7 41//7
f 50//7 51//7 52//7
f 51//7 47//7 52//7
f 52//7 47//7 53//7
f 47//7 49//7 53//7
f 53//7 49//7 54//7
f 49//7 55//7 54//7
f 54//7 55//7 50//7
f 55//7 51//7 50//7
f 56//7 57//7 58//7
f 57//7 51//7 58//7
f 58//7 51//7 59//7
f 51//7 55//7 59//7
f 59//7 55//7 60//7
f 55//7 61//7 60//7
f 60//7 61//7 56//7
f 61//7 57//7 56//7
f 62//7 63//7 64//7
f 63//7 57//7 64//7
f 64//7 57//7 65//7
f 57//7 61//7 65//7
f 65//7 61//7 66//7
f 61//7 67//7 66//7
f 66//7 67//7 62//7
f 67//7 63//7 62//7
f 68//7 69//7 70//7
f 69//7 63//7 70//7
f 70//7 63//7 71//7
f 63//7 67//7 71//7
f 71//7 67//7 72//7
f 67//7 73//7 72//7
f 72//7 73//7 68//7
f 73//7 69//7 68//7
f 74//7 75//7 76//7
f 75//7 69//7 76//7
f 76//7 69//7 77//7
f 69//7 73//7 77//7
f 77//7 73//7 78//7
f 73//7 79//7 78//7
f 78//7 79//7 74//7
f 79//7 75//7 74//7
f 80//7 81//7 82//7
f 81//7 75//7 82//7
f 82//7 75//7 83//7
f 75//7 79//7 83//7
f 83//7 79//7 84//7
f 79//7 85//7 84//7
f 84//7 85//7 80//7
f 85//7 81//7 80//7
f 85//7 86//7 87//7
f 86//7 88//7 87//7
f 88//7 86//7 89//7
f 86//7 90//7 89//7
f 89//7 90//7 91//7
f 90//7 81//7 91//7
f 81//7 92//7 91//7
f 91//7 92//7 87//7
f 92//7 93//7 87//7
f 87//7 93//7 85//7
f 93//7 94//7 85//7
f 85//7 94//7 81//7
f 94//7 95//7 81//7
f 81//7 95//7 92//7
f 96//7 97//7 98//7
f 97//7 90//7 98//7
f 98//7 90//7 99//7
f 90//7 86//7 99//7
f 99//7 86//7 100//7
f 86//7 101//7 100//7
f 100//7 101//7 96//7
f 101//7 97//7 96//7
f 102//7 103//7 104//7
f 103//7 97//7 104//7
f 104//7 97//7 105//7
f 97//7 101//7 105//7
f 105//7 101//7 106//7
f 101//7 107//7 106//7
f 106//7 107//7 102//7
f 107//7 103//7 102//7
f 108//7 109//7 110//7
f 109//7 103//7 110//7
f 110//7 103//7 111//7
f 103//7 107//7 111//7
f 111//7 107//7 112//7
f 107//7 113//7 112//7
f 112//7 113//7 108//7
f 113//7 109//7 108//7
f 114//7 115//7 116//7
f 115//7 109//7 116//7
f 116//7 109//7 117//7
f 109//7 113//7 117//7
f 117//7 113//7 118//7
f 113//7 119//7 118//7
f 118//7 119//7 114//7
f 119//7 115//7 114//7
f 120//7 121//7 122//7
f 121//7 115//7 122//7
f 122//7 115//7 123//7
f 115//7 119//7 123//7
f 123//7 119//7 124//7
f 119//7 125//7 124//7
f 124//7 125//7 120//7
f 120//7 125//7 121//7
f 125//7 6//7 121//7
f 121//7 6//7 4//7
f 8//7 47//7 10//7
f 47//7 51//7 10//7
f 10//7 51//7 12//7
f 51//7 57//7 12//7
f 12//7 57//7 14//7
f 57//7 63//7 14//7
f 14//7 63//7 16//7
f 63//7 69//7 16//7
f 16//7 69//7 18//7
f 69//7 75//7 18//7
f 18//7 75//7 20//7
f 75//7 81//7 20//7
f 20//7 81//7 22//7
f 81//7 90//7 22//7
f 22//7 90//7 24//7
f 90//7 97//7 24//7
f 24//7 97//7 26//7
f 97//7 103//7 26//7
f 26//7 103//7 28//7
f 103//7 109//7 28//7
f 28//7 109//7 30//7
f 109//7 115//7 30//7
f 30//7 115//7 32//7
f 115//7 121//7 32//7
f 32//7 121//7 34//7
f 121//7 4//7 34//7
f 34//7 4//7 2//7
f 126//3 50//3 127//3
f 50//3 52//3 127//3
f 54//8 50//8 128//8
f 50//8 126//8 128//8
f 53//5 54//5 129//5
f 54//5 128//5 129//5
f 52//9 53//9 127//9
f 53//9 129//9 127//9
f 130//1 131//1 129//1
f 131//1 127//1 129//1
f 132//2 130//2 128//2
f 130//2 129//2 128//2
f 133//3 56//3 134//3
f 56//3 58//3 134//3
f 60//8 56//8 135//8
f 56//8 133//8 135//8
f 59//5 60//5 136//5
f 60//5 135//5 136//5
f 58//9 59//9 134//9
f 59//9 136//9 134//9
f 137//1 138//1 136//1
f 138//1 134//1 136//1
f 139//2 137//2 135//2
f 137//2 136//2 135//2
f 140//3 62//3 141//3
f 62//3 64//3 141//3
f 66//8 62//8 142//8
f 62//8 140//8 142//8
f 65//5 66//5 143//5
f 66//5 142//5 143//5
f 64//9 65//9 141//9
f 65//9 143//9 141//9
f 144//1 145//1 143//1
f 145//1 141//1 143//1
f 146//2 144//2 142//2
f 144//2 143//2 142//2
f 147//3 68//3 148//3
f 68//3 70//3 148//3
f 72//10 68//10 149//10
f 68//10 147//10 149//10
f 71//5 72//5 150//5
f 72//5 149//5 150//5
f 70//9 71//9 148//9
f 71//9 150//9 148//9
f 151//1 152//1 150//1
f 152//1 148//1 150//1
f 153//2 151//2 149//2
f 151//2 150//2 149//2
f 154//3 74//3 155//3
f 74//3 76//3 155//3
f 78//10 74//10 156//10
f 74//10 154//10 156//10
f 77//5 78//5 157//5
f 78//5 156//5 157//5
f 76//11 77//11 155//11
f 77//11 157//11 155//11
f 158//1 159//1 157//1
f 159//1 155//1 157//1
f 160//2 158//2 156//2
f 158//2 157//2 156//2
f 161//3 80//3 162//3
f 80//3 82//3 162//3
f 163//12 164//12 165//12
f 164//12 166//12 165//12
f 124//10 120//10 167//10
f 120//10 166//10 167//10
f 164//13 168//13 166//13
f 168//13 167//13 166//13
f 123//5 124//5 169//5
f 124//5 167//5 169//5
f 168//2 170//2 167//2
f 170//2 169//2 167//2
f 171//13 48//13 172//13
f 48//13 46//13 172//13
f 172//13 46//13 7//13
f 46//13 8//13 7//13
f 122//14 123//14 165//14
f 123//14 169//14 165//14
f 170//1 163//1 169//1
f 163//1 165//1 169//1
f 173//13 139//13 133//13
f 139//13 135//13 133//13
f 138//12 173//12 134//12
f 173//12 133//12 134//12
f 174//13 175//13 161//13
f 175//13 176//13 161//13
f 177//12 174//12 162//12
f 174//12 161//12 162//12
f 178//13 179//13 180//13
f 179//13 181//13 180//13
f 182//12 178//12 183//12
f 178//12 180//12 183//12
f 184//13 185//13 186//13
f 185//13 187//13 186//13
f 188//12 184//12 189//12
f 184//12 186//12 189//12
f 190//13 160//13 154//13
f 160//13 156//13 154//13
f 159//12 190//12 155//12
f 190//12 154//12 155//12
f 191//13 132//13 126//13
f 132//13 128//13 126//13
f 131//12 191//12 127//12
f 191//12 126//12 127//12
f 192//13 153//13 147//13
f 153//13 149//13 147//13
f 152//12 192//12 148//12
f 192//12 147//12 148//12
f 193//13 45//13 35//13
f 45//13 40//13 35//13
f 44//12 193//12 37//12
f 193//12 35//12 37//12
f 172//15 7//15 194//15
f 7//15 9//15 194//15
f 194//15 9//15 195//15
f 9//15 11//15 195//15
f 195//15 11//15 196//15
f 11//15 13//15 196//15
f 196//15 13//15 197//15
f 13//15 15//15 197//15
f 197//15 15//15 198//15
f 15//15 17//15 198//15
f 198//15 17//15 199//15
f 17//15 19//15 199//15
f 199//15 19//15 200//15
f 1//15 3//15 33//15
f 3//15 201//15 33//15
f 33//15 201//15 31//15
f 201//15 202//15 31//15
f 31//15 202//15 29//15
f 202//15 203//15 29//15
f 29//15 203//15 27//15
f 203//15 204//15 27//15
f 27//15 204//15 25//15
f 204//15 205//15 25//15
f 25//15 205//15 23//15
f 205//15 206//15 23//15
f 23//15 206//15 21//15
f 44//15 172//15 193//15
f 172//15 194//15 193//15
f 193//15 194//15 45//15
f 194//15 207//15 45//15
f 45//15 207//15 43//15
f 207//15 171//15 43//15
f 43//15 171//15 44//15
f 171//15 172//15 44//15
f 131//15 194//15 191//15
f 194//15 195//15 191//15
f 191//15 195//15 132//15
f 195//15 208//15 132//15
f 132//15 208//15 130//15
f 208//15 207//15 130//15
f 130//15 207//15 131//15
f 207//15 194//15 131//15
f 138//15 195//15 173//15
f 195//15 196//15 173//15
f 173//15 196//15 139//15
f 196//15 209//15 139//15
f 139//15 209//15 137//15
f 209//15 208//15 137//15
f 137//15 208//15 138//15
f 208//15 195//15 138//15
f 145//15 196//15 210//15
f 196//15 197//15 210//15
f 210//15 197//15 146//15
f 197//15 211//15 146//15
f 146//15 211//15 144//15
f 211//15 209//15 144//15
f 144//15 209//15 145//15
f 209//15 196//15 145//15
f 152//15 197//15 192//15
f 197//15 198//15 192//15
f 192//15 198//15 153//15
f 198//15 212//15 153//15
f 153//15 212//15 151//15
f 212//15 211//15 151//15
f 151//15 211//15 152//15
f 211//15 197//15 152//15
f 159//15 198//15 190//15
f 198//15 199//15 190//15
f 190//15 199//15 160//15
f 199//15 213//15 160//15
f 160//15 213//15 158//15
f 213//15 212//15 158//15
f 158//15 212//15 159//15
f 212//15 198//15 159//15
f 177//15 199//15 174//15
f 199//15 200//15 174//15
f 174//15 200//15 175//15
f 200//15 214//15 175//15
f 175//15 214//15 215//15
f 214//15 213//15 215//15
f 215//15 213//15 177//15
f 213//15 199//15 177//15
f 216//15 217//15 218//15
f 219//15 220//15 200//15
f 218//15 217//15 206//15
f 217//15 221//15 206//15
f 206//15 221//15 222//15
f 200//15 220//15 214//15
f 220//15 223//15 214//15
f 214//15 223//15 224//15
f 19//15 21//15 200//15
f 21//15 206//15 200//15
f 200//15 206//15 219//15
f 206//15 222//15 219//15
f 219//15 222//15 224//15
f 222//15 216//15 224//15
f 224//15 216//15 214//15
f 216//15 218//15 214//15
f 188//15 206//15 184//15
f 206//15 205//15 184//15
f 184//15 205//15 185//15
f 205//15 225//15 185//15
f 185//15 225//15 226//15
f 225//15 218//15 226//15
f 226//15 218//15 188//15
f 218//15 206//15 188//15
f 182//15 205//15 178//15
f 205//15 204//15 178//15
f 178//15 204//15 179//15
f 204//15 227//15 179//15
f 179//15 227//15 228//15
f 227//15 225//15 228//15
f 228//15 225//15 182//15
f 225//15 205//15 182//15
f 229//15 204//15 230//15
f 204//15 203//15 230//15
f 230//15 203//15 231//15
f 203//15 232//15 231//15
f 231//15 232//15 233//15
f 232//15 227//15 233//15
f 233//15 227//15 229//15
f 227//15 204//15 229//15
f 234//15 203//15 235//15
f 203//15 202//15 235//15
f 235//15 202//15 236//15
f 202//15 237//15 236//15
f 236//15 237//15 238//15
f 237//15 232//15 238//15
f 238//15 232//15 234//15
f 232//15 203//15 234//15
f 239//15 237//15 170//15
f 170//15 237//15 163//15
f 237//15 202//15 163//15
f 163//15 202//15 164//15
f 202//15 201//15 164//15
f 164//15 201//15 168//15
f 3//15 5//15 201//15
f 5//15 239//15 201//15
f 201//15 239//15 168//15
f 239//15 170//15 168//15
f 5//12 6//12 239//12
f 6//12 125//12 239//12
f 239//12 125//12 237//12
f 125//12 119//12 237//12
f 237//12 119//12 232//12
f 119//12 113//12 232//12
f 232//12 113//12 227//12
f 113//12 107//12 227//12
f 227//12 107//12 225//12
f 107//12 101//12 225//12
f 225//12 101//12 218//12
f 101//12 86//12 218//12
f 218//12 86//12 214//12
f 86//12 85//12 214//12
f 214//12 85//12 213//12
f 85//12 79//12 213//12
f 213//12 79//12 212//12
f 79//12 73//12 212//12
f 212//12 73//12 211//12
f 73//12 67//12 211//12
f 211//12 67//12 209//12
f 67//12 61//12 209//12
f 209//12 61//12 208//12
f 61//12 55//12 208//12
f 208//12 55//12 207//12
f 55//12 49//12 207//12
f 207//12 49//12 171//12
f 49//12 48//12 171//12
f 222//12 221//12 240//12
f 221//12 241//12 240//12
f 221//13 217//13 241//13
f 217//13 242//13 241//13
f 234//12 235//12 243//12
f 235//12 244//12 243//12
f 235//13 236//13 244//13
f 236//13 245//13 244//13
f 229//12 230//12 246//12
f 230//12 247//12 246//12
f 230//13 231//13 247//13
f 231//13 248//13 247//13
f 220//12 219//12 249//12
f 219//12 250//12 249//12
f 219//13 224//13 250//13
f 224//13 251//13 250//13
f 145//12 210//12 141//12
f 210//12 140//12 141//12
f 210//13 146//13 140//13
f 146//13 142//13 140//13
f 166//3 120//3 165//3
f 120//3 122//3 165//3
f 236//2 238//2 245//2
f 238//2 252//2 245//2
f 238//1 234//1 252//1
f 234//1 243//1 252//1
f 116//11 117//11 243//11
f 117//11 252//11 243//11
f 117//5 118//5 252//5
f 118//5 245//5 252//5
f 118//16 114//16 245//16
f 114//16 244//16 245//16
f 244//3 114//3 243//3
f 114//3 116//3 243//3
f 231//2 233//2 248//2
f 233//2 253//2 248//2
f 233//1 229//1 253//1
f 229//1 246//1 253//1
f 110//17 111//17 246//17
f 111//17 253//17 246//17
f 111//5 112//5 253//5
f 112//5 248//5 253//5
f 112//18 108//18 248//18
f 108//18 247//18 248//18
f 247//3 108//3 246//3
f 108//3 110//3 246//3
f 179//2 228//2 181//2
f 228//2 254//2 181//2
f 228//1 182//1 254//1
f 182//1 183//1 254//1
f 104//19 105//19 183//19
f 105//19 254//19 183//19
f 105//5 106//5 254//5
f 106//5 181//5 254//5
f 106//20 102//20 181//20
f 102//20 180//20 181//20
f 180//3 102//3 183//3
f 102//3 104//3 183//3
f 185//2 226//2 187//2
f 226//2 255//2 187//2
f 226//1 188//1 255//1
f 188//1 189//1 255//1
f 98//17 99//17 189//17
f 99//17 255//17 189//17
f 99//5 100//5 255//5
f 100//5 187//5 255//5
f 100//21 96//21 187//21
f 96//21 186//21 187//21
f 186//3 96//3 189//3
f 96//3 98//3 189//3
f 217//2 216//2 242//2
f 216//2 256//2 242//2
f 216//1 222//1 256//1
f 222//1 240//1 256//1
f 91//11 87//11 240//11
f 87//11 256//11 240//11
f 87//5 88//5 256//5
f 88//5 242//5 256//5
f 88//18 89//18 242//18
f 89//18 241//18 242//18
f 241//3 89//3 240//3
f 89//3 91//3 240//3
f 224//2 223//2 251//2
f 223//2 257//2 251//2
f 223//1 220//1 257//1
f 220//1 249//1 257//1
f 95//11 94//11 249//11
f 94//11 257//11 249//11
f 94//5 93//5 257//5
f 93//5 251//5 257//5
f 93//10 92//10 251//10
f 92//10 250//10 251//10
f 250//3 92//3 249//3
f 92//3 95//3 249//3
f 175//2 215//2 176//2
f 215//2 258//2 176//2
f 215//1 177//1 258//1
f 177//1 162//1 258//1
f 82//11 83//11 162//11
f 83//11 258//11 162//11
f 83//5 84//5 258//5
f 84//5 176//5 258//5
f 84//10 80//10 176//10
f 80//10 161//10 176//10
# Vertices: 258, normals: 21, texture coordinates: 0, faces: 568

